<svg xmlns="http://www.w3.org/2000/svg" viewBox="0 0 512 512"><defs><radialGradient id="g" cx="50%" cy="54%" r="55%"><stop offset="0" stop-color="#FFC94A" stop-opacity=".85"/><stop offset=".45" stop-color="#FFC94A" stop-opacity=".22"/><stop offset="1" stop-color="#FFC94A" stop-opacity="0"/></radialGradient></defs><rect width="512" height="512" rx="96" fill="#07080F"/><path d="M0 120 L140 120 L150 160 L0 160Z M512 90 L390 90 L380 140 L512 140Z" fill="#1E2236"/><circle cx="256" cy="280" r="250" fill="url(#g)"/><g fill="#FFC94A"><circle cx="256" cy="270" r="26"/><circle cx="198" cy="318" r="20"/><circle cx="316" cy="322" r="20"/><circle cx="226" cy="214" r="16"/><circle cx="296" cy="226" r="15"/><circle cx="256" cy="360" r="14"/><circle cx="160" cy="260" r="11"/><circle cx="356" cy="268" r="11"/></g><g fill="#FFF3C4"><circle cx="256" cy="270" r="11"/><circle cx="198" cy="318" r="8"/><circle cx="316" cy="322" r="8"/></g><circle cx="388" cy="176" r="12" fill="#7FE0D4"/></svg>
